<svg data-v-29081953="" xmlns="http://www.w3.org/2000/svg" viewBox="0 0 300 300"><!----><defs data-v-29081953=""><!----></defs><rect data-v-29081953="" fill="transparent" x="0" y="0" width="300px" height="300px" class="logo-background-square"></rect><!----><defs data-v-29081953=""><linearGradient data-v-29081953="" gradientTransform="rotate(25)" id="38f9d5b1-bf08-41c1-922e-5ba484c5c00a" x1="0%" y1="0%" x2="100%" y2="0%"><stop data-v-29081953="" offset="0%" stop-color="#0D7CE9" stop-opacity="1"></stop><stop data-v-29081953="" offset="100%" stop-color="#28C4E0" stop-opacity="1"></stop></linearGradient></defs><g data-v-29081953="" id="8ecce702-ad1c-45ca-9cce-7fc3e64419e0" fill="url(#38f9d5b1-bf08-41c1-922e-5ba484c5c00a)" stroke="none" transform="matrix(2.3109240734293865,0,0,2.3109240734293865,34.45378310531706,34.68487639420758)"><path d="M89.3 41.7c-3.7 0-6.9 2.5-7.9 5.9H74c-.4-4.6-2.2-8.9-5-12.5l5.4-5.4c3.1 1.4 6.8.9 9.3-1.7 3.2-3.2 3.2-8.5 0-11.7-3.2-3.2-8.5-3.2-11.7 0-2.5 2.5-3.1 6.3-1.7 9.3L64.9 31c-3.5-2.7-7.6-4.4-12-5v-7.6c3.2-1.2 5.4-4.2 5.4-7.8 0-4.6-3.7-8.3-8.3-8.3-4.6 0-8.3 3.7-8.3 8.3 0 3.6 2.3 6.6 5.4 7.8V26c-4.4.5-8.5 2.2-12 5l-5.4-5.4c.5-1.1.8-2.2.8-3.5 0-4.6-3.7-8.3-8.3-8.3-4.6 0-8.3 3.7-8.3 8.3 0 4.6 3.7 8.3 8.3 8.3 1.2 0 2.4-.3 3.5-.8l5.4 5.4c-2.7 3.5-4.4 7.6-5 12h-7.6c-1.2-3.2-4.2-5.4-7.8-5.4-4.6 0-8.3 3.7-8.3 8.3s3.7 8.3 8.3 8.3c3.6 0 6.6-2.3 7.8-5.4h7.6c.5 4.4 2.2 8.5 5 12l-5.4 5.4c-1.1-.5-2.2-.8-3.5-.8-4.6 0-8.3 3.7-8.3 8.3 0 4.6 3.7 8.3 8.3 8.3 4.6 0 8.3-3.7 8.3-8.3 0-1.2-.3-2.4-.8-3.5l5.4-5.4c3.5 2.7 7.6 4.4 12 5v7.6c-3.2 1.2-5.4 4.2-5.4 7.8 0 4.6 3.7 8.3 8.3 8.3 4.6 0 8.3-3.7 8.3-8.3 0-3.6-2.3-6.6-5.4-7.8v-7.6c4.4-.5 8.5-2.2 12-5l5.4 5.4c-.5 1.1-.8 2.2-.8 3.5 0 4.6 3.7 8.3 8.3 8.3 4.6 0 8.3-3.7 8.3-8.3 0-4.6-3.7-8.3-8.3-8.3-1.2 0-2.4.3-3.5.8l-5.4-5.4c2.6-3.3 4.3-7.3 4.9-11.5h7.9c1.3 2.9 4.2 4.9 7.6 4.9 4.6 0 8.3-3.7 8.3-8.3-.1-4.5-3.8-8.2-8.3-8.2zM63.1 64c-3.5-2.1-6.9-3.8-6.9-3.8-.6-.3-.9-1.2-1.1-2.2-.1-.3-.1-.6-.1-.9 3.9-3.4 3.1-10.8 3.1-10.8-.4-8.3-7.3-8.2-8-8.2-.7 0-7.6-.1-8 8.2 0 0-.8 7.4 3.1 10.8 0 .3-.1.6-.1.9-.2 1.1-.6 1.9-1.1 2.2 0 0-3.5 1.7-6.9 3.8-3.7-3.5-6.1-8.5-6.1-14 0-10.6 8.6-19.2 19.2-19.2s19 8.6 19 19.2c0 5.5-2.4 10.5-6.1 14z"></path></g><!----></svg>