<svg width="480" height="100" xmlns="http://www.w3.org/2000/svg" style="vector-effect: non-scaling-stroke;" stroke="null">
 <!---->
 <defs style="vector-effect: non-scaling-stroke;" stroke="null">
  <!---->
  <linearGradient style="vector-effect: non-scaling-stroke;" stroke="null" y2="0%" x2="100%" y1="0%" x1="0%" id="f201db3e-01ed-4c7e-8fe7-b94bd242059b" gradientTransform="rotate(25)">
   <stop style="vector-effect: non-scaling-stroke;" stroke="null" stop-color="#0D7CE9" offset="0%"/>
   <stop style="vector-effect: non-scaling-stroke;" stroke="null" stop-color="#28C4E0" offset="100%"/>
  </linearGradient>
 </defs>
 <defs style="vector-effect: non-scaling-stroke;" stroke="null">
  <!---->
 </defs>

 <!---->
 <g stroke="null">
  <title stroke="null">background</title>
  <rect stroke="null" fill="none" id="canvas_background" height="102" width="482" y="-1" x="-1"/>
 </g>
 <g stroke="null">
  <title stroke="null">Layer 1</title>
  <rect style="vector-effect: non-scaling-stroke;" stroke="null" id="svg_1" class="logo-background-square" height="300" width="300" fill="transparent"/>
  <g stroke="null" transform="matrix(5.47764 0 0 5.47764 75.4674 273.514)" fill="#0D7CE9" id="16224d17-e751-42ab-99a7-1caf54bebd1b">
   <path stroke="null" id="svg_2" d="m8.40533,-42.72411l0,0l0,0q-0.17,0 -0.34,0.01l0,0l0,0q-0.16,0.01 -0.29,0.04l0,0l0,0q-0.15,0.03 -0.28,0.04l0,0l0,4.29l0.84,0l0,0q0.35,0 0.69,-0.1l0,0l0,0q0.35,-0.1 0.61,-0.35l0,0l0,0q0.27,-0.25 0.43,-0.68l0,0l0,0q0.16,-0.43 0.16,-1.07l0,0l0,0q0,-0.64 -0.16,-1.06l0,0l0,0q-0.16,-0.42 -0.42,-0.68l0,0l0,0q-0.26,-0.25 -0.58,-0.35l0,0l0,0q-0.32,-0.09 -0.66,-0.09zm-3.85,-0.56l3.85,0l0,0q0.31,0 0.71,0.02l0,0l0,0q0.41,0.03 0.83,0.14l0,0l0,0q0.42,0.1 0.82,0.28l0,0l0,0q0.4,0.19 0.72,0.5l0,0l0,0q0.32,0.32 0.51,0.77l0,0l0,0q0.19,0.46 0.19,1.1l0,0l0,0q0,0.6 -0.19,1.04l0,0l0,0q-0.19,0.43 -0.5,0.73l0,0l0,0q-0.3,0.3 -0.68,0.48l0,0l0,0q-0.38,0.19 -0.75,0.28l0,0l0,0q-0.37,0.1 -0.7,0.13l0,0l0,0q-0.33,0.03 -0.54,0.03l0,0l-1.33,0l0,3.74l-1.82,0l0,-7.42l0,0q0,-0.63 -0.17,-1.02l0,0l0,0q-0.18,-0.38 -0.81,-0.38l0,0l-0.14,0l0,-0.42zm13.03,5.95l0,0l0,0q0,-0.61 -0.09,-1.12l0,0l0,0q-0.09,-0.51 -0.27,-0.89l0,0l0,0q-0.18,-0.37 -0.46,-0.58l0,0l0,0q-0.28,-0.21 -0.65,-0.21l0,0l0,0q-0.36,0 -0.64,0.21l0,0l0,0q-0.28,0.21 -0.46,0.58l0,0l0,0q-0.18,0.38 -0.28,0.89l0,0l0,0q-0.09,0.51 -0.09,1.12l0,0l0,0q0,0.6 0.09,1.11l0,0l0,0q0.1,0.51 0.28,0.89l0,0l0,0q0.18,0.38 0.46,0.59l0,0l0,0q0.28,0.21 0.64,0.21l0,0l0,0q0.37,0 0.65,-0.21l0,0l0,0q0.28,-0.21 0.46,-0.59l0,0l0,0q0.18,-0.38 0.27,-0.89l0,0l0,0q0.09,-0.51 0.09,-1.11zm-4.83,0l0,0l0,0q0,-0.72 0.23,-1.35l0,0l0,0q0.24,-0.63 0.67,-1.09l0,0l0,0q0.43,-0.46 1.06,-0.73l0,0l0,0q0.62,-0.26 1.4,-0.26l0,0l0,0q0.79,0 1.41,0.26l0,0l0,0q0.62,0.27 1.06,0.73l0,0l0,0q0.43,0.46 0.66,1.09l0,0l0,0q0.23,0.63 0.23,1.35l0,0l0,0q0,0.71 -0.23,1.34l0,0l0,0q-0.23,0.63 -0.66,1.09l0,0l0,0q-0.44,0.46 -1.06,0.73l0,0l0,0q-0.62,0.27 -1.41,0.27l0,0l0,0q-0.78,0 -1.4,-0.27l0,0l0,0q-0.63,-0.27 -1.06,-0.73l0,0l0,0q-0.43,-0.46 -0.67,-1.09l0,0l0,0q-0.23,-0.63 -0.23,-1.34zm14,-1.68l1.29,2.81l1.71,-4.42l0.74,0l-2.57,6.72l-0.65,0l-1.82,-3.94l-1.62,3.94l-0.63,0l-2.28,-5.11l0,0q-0.35,-0.79 -0.65,-1.11l0,0l0,0q-0.29,-0.32 -0.66,-0.35l0,0l0,-0.27l0,0q0.03,0 0.12,0l0,0l0,0q0.09,-0.01 0.2,-0.01l0,0l0,0q0.1,0 0.21,-0.01l0,0l0,0q0.1,0 0.15,0l0,0l0,0q0.44,0 0.81,0.08l0,0l0,0q0.36,0.08 0.67,0.28l0,0l0,0q0.31,0.2 0.57,0.53l0,0l0,0q0.26,0.34 0.49,0.86l0,0l1.19,2.67l0.94,-2.24l-0.19,-0.43l0,0q-0.35,-0.77 -0.64,-1.1l0,0l0,0q-0.29,-0.33 -0.6,-0.36l0,0l0,-0.27l0,0q0.06,0 0.25,-0.01l0,0l0,0q0.19,-0.01 0.29,-0.01l0,0l0,0q0.44,0 0.83,0.07l0,0l0,0q0.38,0.08 0.72,0.28l0,0l0,0q0.34,0.21 0.62,0.54l0,0l0,0q0.28,0.34 0.51,0.86l0,0zm8.18999,-4.27l3.14,7.47l0,0q0.25,0.62 0.62,0.98l0,0l0,0q0.36,0.37 0.84,0.42l0,0l0,0.35l0,0q-0.12,0.03 -0.32,0.05l0,0l0,0q-0.2,0.02 -0.36,0.02l0,0l0,0q-0.33,0 -0.72,-0.06l0,0l0,0q-0.38,-0.06 -0.75,-0.25l0,0l0,0q-0.37,-0.19 -0.7,-0.55l0,0l0,0q-0.33,-0.36 -0.58,-0.96l0,0l-0.33,-0.78l-3.72,0l-1.14999,2.55l-0.73,0l4.12999,-9.24l0.63,0zm-0.96,2.4l-1.63,3.66l3.17,0l-1.54,-3.66zm8.08,6.35l0,0l0,0q0.78,0 1.09,-0.28l0,0l0,0q0.31,-0.27 0.31,-0.68l0,0l0,0q0,-0.4 -0.37,-0.65l0,0l0,0q-0.36,-0.24 -0.89,-0.48l0,0l-0.73,-0.31l0,0q-0.84,-0.36 -1.32,-0.82l0,0l0,0q-0.47,-0.47 -0.47,-1.15l0,0l0,0q0,-0.46 0.19,-0.81l0,0l0,0q0.2,-0.34 0.56,-0.58l0,0l0,0q0.35,-0.24 0.84,-0.35l0,0l0,0q0.49,-0.12 1.07,-0.12l0,0l0,0q0.86,0 1.42,0.15l0,0l0,0q0.55,0.15 0.83,0.42l0,0l0,0q0.25,0.24 0.29,0.69l0,0l0,0q0.05,0.44 0.05,0.98l0,0l-0.49,0l0,0q-0.12,-0.68 -0.55,-1.15l0,0l0,0q-0.43,-0.46 -1.27,-0.46l0,0l0,0q-0.63,0 -0.91,0.27l0,0l0,0q-0.28,0.27 -0.28,0.68l0,0l0,0q0,0.38 0.26,0.61l0,0l0,0q0.27,0.23 0.73,0.42l0,0l0.84,0.35l0,0q0.97,0.41 1.46,0.85l0,0l0,0q0.49,0.44 0.49,1.18l0,0l0,0q0,0.47 -0.22,0.81l0,0l0,0q-0.22,0.34 -0.6,0.58l0,0l0,0q-0.37,0.24 -0.9,0.36l0,0l0,0q-0.52,0.12 -1.15,0.12l0,0l0,0q-0.87,0 -1.42,-0.16l0,0l0,0q-0.56,-0.15 -0.84,-0.42l0,0l0,0q-0.25,-0.24 -0.29,-0.68l0,0l0,0q-0.04,-0.45 -0.04,-0.98l0,0l0.49,0l0,0q0.11,0.67 0.54,1.14l0,0l0,0q0.44,0.47 1.28,0.47zm6.55,0l0,0l0,0q0.78,0 1.09,-0.28l0,0l0,0q0.31,-0.27 0.31,-0.68l0,0l0,0q0,-0.4 -0.37,-0.65l0,0l0,0q-0.36,-0.24 -0.89,-0.48l0,0l-0.73,-0.31l0,0q-0.84,-0.36 -1.32,-0.82l0,0l0,0q-0.47,-0.47 -0.47,-1.15l0,0l0,0q0,-0.46 0.19,-0.81l0,0l0,0q0.2,-0.34 0.56,-0.58l0,0l0,0q0.35,-0.24 0.84,-0.35l0,0l0,0q0.49001,-0.12 1.07,-0.12l0,0l0,0q0.87,0 1.42,0.15l0,0l0,0q0.55,0.15 0.83,0.42l0,0l0,0q0.25,0.24 0.3,0.69l0,0l0,0q0.04,0.44 0.04,0.98l0,0l-0.49,0l0,0q-0.11,-0.68 -0.55,-1.15l0,0l0,0q-0.43,-0.46 -1.27,-0.46l0,0l0,0q-0.63,0 -0.91,0.27l0,0l0,0q-0.28,0.27 -0.28,0.68l0,0l0,0q0,0.38 0.26001,0.61l0,0l0,0q0.27,0.23 0.73,0.42l0,0l0.84,0.35l0,0q0.97,0.41 1.46,0.85l0,0l0,0q0.49,0.44 0.49,1.18l0,0l0,0q0,0.47 -0.22,0.81l0,0l0,0q-0.22,0.34 -0.59,0.58l0,0l0,0q-0.38,0.24 -0.91,0.36l0,0l0,0q-0.52,0.12 -1.15,0.12l0,0l0,0q-0.87,0 -1.42,-0.16l0,0l0,0q-0.56,-0.15 -0.84,-0.42l0,0l0,0q-0.25,-0.24 -0.29,-0.68l0,0l0,0q-0.04,-0.45 -0.04,-0.98l0,0l0.49,0l0,0q0.11,0.67 0.54,1.14l0,0l0,0q0.44,0.47 1.28,0.47zm7.57,0l0,0l0,0q0.73,0 1.18,-0.34l0,0l0,0q0.46,-0.34 0.82,-0.83l0,0l0.44,0.33l0,0q-0.16,0.23 -0.37,0.49l0,0l0,0q-0.22,0.26 -0.53,0.48l0,0l0,0q-0.32,0.22 -0.75,0.36l0,0l0,0q-0.42,0.14 -1,0.14l0,0l0,0q-0.74,0 -1.33,-0.26l0,0l0,0q-0.6,-0.26 -1.02,-0.72l0,0l0,0q-0.42,-0.47 -0.64,-1.09l0,0l0,0q-0.23,-0.62 -0.23,-1.36l0,0l0,0q0,-0.84 0.24,-1.49l0,0l0,0q0.24,-0.64 0.65,-1.07l0,0l0,0q0.41,-0.43 0.97,-0.65l0,0l0,0q0.56,-0.22 1.22,-0.22l0,0l0,0q0.66,0 1.22,0.2l0,0l0,0q0.56,0.2 0.97,0.57l0,0l0,0q0.42,0.36 0.65,0.88l0,0l0,0q0.24,0.52 0.24,1.15l0,0l0,0q0,0.15 -0.01,0.31l0,0l0,0q0,0.16 -0.02,0.29l0,0l0,0q-0.01,0.15 -0.02,0.28l0,0l-4.22,0l0,0q0,1.38 0.43,1.97l0,0l0,0q0.43,0.58 1.11,0.58zm-1.54,-3.18l2.38,0l0,0q0,-0.7 -0.09,-1.16l0,0l0,0q-0.09,-0.47 -0.24,-0.75l0,0l0,0q-0.16,-0.28 -0.37,-0.39l0,0l0,0q-0.22,-0.12 -0.49,-0.12l0,0l0,0q-0.24,0 -0.45,0.12l0,0l0,0q-0.22,0.11 -0.38,0.39l0,0l0,0q-0.16,0.28 -0.26,0.75l0,0l0,0q-0.1,0.46 -0.1,1.16l0,0zm8.85,-2.35l0,0l0,0q-0.45,0 -0.78,0.12l0,0l0,0q-0.33,0.13 -0.51,0.31l0,0l0,0q0.02,0.08 0.04,0.2l0,0l0,0q0.03,0.09 0.05,0.23l0,0l0,0q0.01,0.14 0.01,0.31l0,0l0,4.85l-1.82,0l0,-4.76l0,0q0,-0.31 -0.04,-0.57l0,0l0,0q-0.03,-0.26 -0.13,-0.45l0,0l0,0q-0.1,-0.19 -0.29,-0.29l0,0l0,0q-0.2,-0.09 -0.51,-0.09l0,0l-0.14,0l0,-0.42l1.39,0l0,0q0.48,0 0.75,0.11l0,0l0,0q0.27,0.12 0.43,0.4l0,0l0,0q0.12,-0.11 0.3,-0.23l0,0l0,0q0.17,-0.12 0.42,-0.21l0,0l0,0q0.24,-0.09 0.56,-0.15l0,0l0,0q0.33,-0.06 0.76,-0.06l0,0l0,0q1.32,0 1.98999,0.61l0,0l0,0q0.67,0.6 0.67,1.96l0,0l0,4.15l-1.82,0l0,-4.16l0,0q0,-1.02 -0.38,-1.44l0,0l0,0q-0.38,-0.42 -0.95,-0.42zm6.87,-2.66l0,2.1l1.54,0l0,0.63l-1.54,0l0,4.13l0,0q0,0.78 0.19,1.05l0,0l0,0q0.19,0.28 0.54,0.28l0,0l0,0q0.23,0 0.43,-0.06l0,0l0,0q0.2,-0.06 0.36,-0.13l0,0l0,0q0.16,-0.08 0.32,-0.19l0,0l0.19,0.39l0,0q-0.18,0.17 -0.43,0.31l0,0l0,0q-0.22,0.11 -0.57,0.21l0,0l0,0q-0.34,0.1 -0.82,0.1l0,0l0,0q-0.95,0 -1.49001,-0.52l0,0l0,0q-0.54,-0.52 -0.54,-1.53l0,0l0,-4.04l-0.84,0l0,-0.63l0.84,0l0,-1.26l0.7,-0.84l1.12,0z"/>
  </g>
  <g transform="matrix(0.832384 0 0 0.832384 76.089 279.114)" fill="url(#f201db3e-01ed-4c7e-8fe7-b94bd242059b)" id="1ff7d4eb-77eb-430d-bdc4-63a3a2e39802">
   <path stroke="null" id="svg_3" d="m7.58131,-283.82593c-3.70001,0 -6.9,2.5 -7.9,5.89999l-7.4,0c-0.4,-4.60001 -2.2,-8.89999 -5,-12.5l5.4,-5.39999c3.1,1.39999 6.8,0.89999 9.3,-1.70001c3.2,-3.20001 3.2,-8.5 0,-11.70001c-3.2,-3.19998 -8.5,-3.19998 -11.7,0c-2.5,2.5 -3.1,6.30002 -1.7,9.30002l-5.4,5.39999c-3.5,-2.70001 -7.6,-4.39999 -12,-5l0,-7.60001c3.2,-1.19998 5.4,-4.19998 5.4,-7.79999c0,-4.60001 -3.7,-8.30002 -8.3,-8.30002c-4.6,0 -8.3,3.70001 -8.3,8.30002c0,3.60001 2.3,6.60001 5.4,7.79999l0,7.60001c-4.4,0.5 -8.5,2.20001 -12,5l-5.4,-5.39999c0.5,-1.10001 0.8,-2.20001 0.8,-3.5c0,-4.60001 -3.7,-8.30002 -8.3,-8.30002c-4.59999,0 -8.30001,3.70001 -8.30001,8.30002c0,4.60001 3.70002,8.29999 8.30001,8.29999c1.2,0 2.4,-0.29999 3.5,-0.79999l5.4,5.39999c-2.7,3.5 -4.4,7.60001 -5,12l-7.6,0c-1.2,-3.20001 -4.20001,-5.39999 -7.80002,-5.39999c-4.6,0 -8.3,3.69998 -8.3,8.29999s3.7,8.30002 8.3,8.30002c3.60001,0 6.60002,-2.30002 7.80002,-5.40002l7.6,0c0.5,4.40002 2.2,8.5 5,12.00003l-5.4,5.39992c-1.1,-0.5 -2.2,-0.79997 -3.5,-0.79997c-4.59999,0 -8.30001,3.69998 -8.30001,8.29997c0,4.60001 3.70002,8.3 8.30001,8.3c4.6,0 8.3,-3.7 8.3,-8.3c0,-1.2 -0.3,-2.39999 -0.8,-3.5l5.4,-5.39998c3.5,2.69998 7.6,4.39998 12,4.99998l0,7.60001c-3.2,1.2 -5.4,4.2 -5.4,7.79999c0,4.60001 3.7,8.3 8.3,8.3c4.6,0 8.3,-3.7 8.3,-8.3c0,-3.59999 -2.3,-6.59999 -5.4,-7.79999l0,-7.60001c4.4,-0.5 8.5,-2.2 12,-4.99998l5.4,5.39998c-0.5,1.10001 -0.8,2.20001 -0.8,3.5c0,4.60001 3.7,8.3 8.3,8.3c4.6,0 8.29999,-3.7 8.29999,-8.3c0,-4.59999 -3.7,-8.29997 -8.29999,-8.29997c-1.20001,0 -2.4,0.29997 -3.5,0.79997l-5.4,-5.39992c2.6,-3.30002 4.29999,-7.30002 4.9,-11.50003l7.89999,0c1.3,2.90002 4.2,4.90002 7.60001,4.90002c4.6,0 8.3,-3.70001 8.3,-8.30002c-0.1,-4.5 -3.8,-8.19998 -8.3,-8.19998zm-26.2,22.29999c-3.5,-2.10001 -6.9,-3.79999 -6.9,-3.79999c-0.6,-0.30002 -0.9,-1.20001 -1.1,-2.20001c-0.1,-0.29999 -0.1,-0.60001 -0.1,-0.89999c3.9,-3.39999 3.1,-10.80002 3.1,-10.80002c-0.4,-8.29999 -7.3,-8.19998 -8,-8.19998c-0.7,0 -7.6,-0.10001 -8,8.19998c0,0 -0.8,7.40002 3.1,10.80002c0,0.29999 -0.1,0.60001 -0.1,0.89999c-0.2,1.10001 -0.6,1.89999 -1.1,2.20001c0,0 -3.5,1.69998 -6.9,3.79999c-3.7,-3.5 -6.1,-8.5 -6.1,-14c0,-10.60001 8.6,-19.20001 19.2,-19.20001s18.99999,8.60001 18.99999,19.20001c0,5.5 -2.39999,10.5 -6.1,14z"/>
  </g>
 </g>
</svg>